<svg width="73" height="62" viewBox="0 0 73 62" fill="none" xmlns="http://www.w3.org/2000/svg">
<path d="M50.1177 35.8586V14.0939C50.1177 6.34427 43.8569 0.0511624 36.1166 0.000299609C28.3161 -0.0505632 21.9305 6.38127 21.9305 14.1864V35.8586C17.7181 39.6918 15.0732 45.2173 15.0732 51.3578C15.0732 52.8976 15.2397 54.4003 15.5541 55.8476C20.5757 55.3436 27.3219 53.8455 34.6832 51.4965V50.3267C33.7491 49.8458 33.111 48.8702 33.111 47.7466C33.111 46.1421 34.4103 44.8381 36.0195 44.8381C37.6286 44.8381 38.9279 46.1375 38.9279 47.7466C38.9279 48.8702 38.2898 49.8458 37.3558 50.3267V50.6134C37.4344 50.5856 37.513 50.5625 37.5916 50.5348C43.45 48.528 48.7721 46.2947 53.0955 44.1076C53.0862 44.0844 53.077 44.0567 53.0631 44.0336C53.0446 43.9873 53.0261 43.9411 53.0076 43.8949C52.9845 43.844 52.9706 43.7978 52.9475 43.7561C52.9105 43.6637 52.8689 43.5712 52.8227 43.4787C52.7857 43.3862 52.7441 43.2938 52.7024 43.2059C52.6608 43.1134 52.6146 43.0256 52.573 42.9331C52.5314 42.8452 52.4851 42.7574 52.4435 42.6695C52.4204 42.6279 52.4019 42.5817 52.3788 42.5401C52.3556 42.4985 52.3372 42.4568 52.314 42.4106C52.2216 42.2395 52.1337 42.0684 52.0412 41.902C51.9487 41.7401 51.8563 41.5783 51.7638 41.4211C51.7407 41.3795 51.7222 41.3379 51.6944 41.3009C51.6713 41.2639 51.6482 41.2223 51.6204 41.1806C51.5742 41.102 51.5233 41.0234 51.4771 40.9494C51.4262 40.8708 51.38 40.7922 51.3338 40.7183L51.3014 40.6674L51.2644 40.6119C51.2413 40.5749 51.2182 40.5379 51.1951 40.5009C51.1488 40.4269 51.1026 40.3576 51.0517 40.2836C51.0055 40.2143 50.9592 40.1403 50.9084 40.0709C50.8113 39.9322 50.7142 39.7981 50.6217 39.6686C50.2379 39.1415 49.8634 38.6791 49.5166 38.2768C49.1698 37.8746 48.8507 37.537 48.5872 37.2596C48.5224 37.1902 48.4577 37.1255 48.3976 37.0654L48.2265 36.8943C48.1202 36.7879 48.0277 36.7001 47.9537 36.6307C47.8242 36.5059 47.7456 36.4319 47.7318 36.4134C47.7503 36.4273 47.8381 36.4874 47.9907 36.5845C48.0739 36.6446 48.1803 36.7186 48.3005 36.8018C48.4253 36.8897 48.5641 36.9914 48.7166 37.107C49.0218 37.3428 49.3871 37.6434 49.7848 38.0087C50.187 38.3739 50.6171 38.8086 51.061 39.3126C51.2829 39.5623 51.5049 39.8305 51.7268 40.1171C51.7545 40.1495 51.7823 40.1865 51.81 40.2235L51.8516 40.279L51.8933 40.3391C51.9441 40.4131 51.9996 40.4824 52.0551 40.561C52.106 40.635 52.1614 40.709 52.2169 40.7876C52.2447 40.8246 52.2724 40.8616 52.3002 40.8986C52.3233 40.9356 52.351 40.9772 52.3788 41.0188C52.4897 41.1806 52.5961 41.3471 52.7071 41.5089C52.8088 41.68 52.9105 41.8511 53.0169 42.0268C53.04 42.0684 53.0677 42.11 53.0955 42.1563C53.1186 42.1979 53.1417 42.2441 53.1695 42.2904C53.2157 42.3829 53.2666 42.4707 53.3174 42.5632C53.3683 42.6557 53.4191 42.7435 53.4654 42.836C53.5116 42.9285 53.5579 43.021 53.6041 43.118C53.6503 43.2152 53.6966 43.3076 53.7474 43.4001C53.7937 43.4972 53.8353 43.5943 53.8769 43.6914C53.8815 43.7007 53.8862 43.7053 53.8862 43.7099C54.3439 43.4741 54.7878 43.2383 55.2225 43.0025C54.0341 40.2744 52.277 37.8514 50.1084 35.877L50.1177 35.8586ZM43.7552 31.882C43.672 31.8496 43.5841 31.8126 43.5009 31.7849C42.3311 31.3364 41.0179 31.7063 40.2133 32.6681C39.2146 33.861 37.7118 34.624 36.0287 34.624C34.3456 34.624 32.8428 33.861 31.8441 32.6681C31.0442 31.7063 29.731 31.3364 28.5611 31.7849C28.4733 31.8173 28.39 31.8496 28.3022 31.882V14.1633C28.3022 9.90467 31.7886 6.35814 36.0472 6.36739C40.3104 6.37202 43.7598 9.83068 43.7598 14.0939V31.882H43.7552ZM48.4901 15.2314C48.4901 15.3701 48.4901 15.5042 48.4901 15.6429C48.4901 15.777 48.4855 15.9157 48.4808 16.0498C48.4762 16.3226 48.4716 16.5862 48.4623 16.8497C48.4531 17.3769 48.4392 17.8809 48.4207 18.3664C48.4022 18.8473 48.3837 19.3004 48.3652 19.7212C48.3467 20.142 48.3236 20.5257 48.3005 20.8679C48.282 21.2101 48.2589 21.506 48.2404 21.7511C48.2219 21.9961 48.2034 22.1857 48.1895 22.3198C48.1803 22.4493 48.171 22.5186 48.171 22.5186C48.171 22.5186 48.1664 22.4493 48.1525 22.3198C48.1433 22.1903 48.1202 21.9961 48.1063 21.7511C48.0878 21.506 48.0647 21.2101 48.0416 20.8679C48.0184 20.5304 47.9999 20.142 47.9768 19.7212C47.9537 19.305 47.9352 18.8473 47.9213 18.3664C47.9028 17.8855 47.889 17.3769 47.8797 16.8497C47.8705 16.5908 47.8705 16.3226 47.8612 16.0498C47.8612 15.9157 47.8566 15.7816 47.852 15.6429C47.852 15.5042 47.852 15.3701 47.852 15.2314C47.852 14.9586 47.8427 14.6765 47.8427 14.3991V14.0847L47.8381 13.9829C47.8381 13.8442 47.8335 13.7101 47.8289 13.576C47.8289 13.5067 47.8242 13.4373 47.8196 13.3726L47.8011 13.1691L47.7872 12.9657C47.7826 12.9009 47.7734 12.8316 47.7641 12.7669C47.7503 12.6328 47.7318 12.4987 47.7179 12.3646C47.6948 12.2305 47.6763 12.101 47.6532 11.9669C47.6439 11.8976 47.6347 11.8328 47.6208 11.7681C47.6069 11.7034 47.593 11.6386 47.5792 11.5739C47.5514 11.4444 47.5283 11.315 47.4959 11.1855C47.4636 11.056 47.4312 10.9312 47.3988 10.8063C47.3665 10.6815 47.3295 10.5566 47.2925 10.4364C47.1538 9.94628 46.9688 9.48389 46.7931 9.04462C46.7422 8.93827 46.696 8.83193 46.6498 8.72558C46.5989 8.62385 46.5573 8.5175 46.5064 8.4204C46.4556 8.31867 46.4093 8.22157 46.3585 8.12909C46.3353 8.07823 46.3122 8.03199 46.2845 7.99038C46.2614 7.94414 46.2336 7.8979 46.2059 7.85166C46.1042 7.67595 46.0117 7.50025 45.91 7.33841C45.8591 7.25518 45.8128 7.1812 45.7666 7.10259C45.7435 7.0656 45.7204 7.02398 45.6973 6.99162C45.6741 6.95463 45.6464 6.92226 45.6233 6.88527C45.5262 6.74655 45.4429 6.61708 45.3551 6.49224C45.2672 6.37202 45.1886 6.26567 45.1193 6.16857C45.0823 6.1177 45.0499 6.07146 45.0129 6.02985C44.9759 5.98823 44.9482 5.94662 44.9158 5.90963C44.8603 5.83565 44.8048 5.77091 44.7632 5.72005C44.7031 5.64144 44.6615 5.59058 44.6476 5.57208C44.6707 5.58596 44.717 5.63219 44.791 5.69693C44.8418 5.73854 44.9019 5.79403 44.9713 5.85877C45.0083 5.89113 45.0453 5.9235 45.0869 5.96049L45.2117 6.08534C45.295 6.17319 45.3921 6.27029 45.4984 6.37664C45.6001 6.48299 45.7019 6.60783 45.8175 6.7373C45.8498 6.76967 45.873 6.80204 45.9053 6.8344C45.9331 6.8714 45.9608 6.90376 45.9886 6.94075C46.044 7.01011 46.1042 7.08872 46.1643 7.1627C46.2891 7.31067 46.4001 7.48175 46.5249 7.65746C46.5573 7.69907 46.585 7.74531 46.6174 7.78693C46.6498 7.82854 46.6729 7.8794 46.7053 7.92564C46.7654 8.02274 46.8255 8.11985 46.8856 8.21232C46.9503 8.30943 47.0058 8.41115 47.0613 8.5175C47.1168 8.62385 47.1769 8.7302 47.237 8.83655C47.4543 9.28044 47.6716 9.74745 47.8427 10.2607C47.9398 10.5104 48.0092 10.774 48.0878 11.0421C48.1248 11.1762 48.1572 11.315 48.1895 11.449C48.2034 11.5184 48.2219 11.5878 48.2358 11.6525C48.2496 11.7172 48.2589 11.7912 48.2728 11.8606C48.3005 11.9993 48.3236 12.138 48.3514 12.2767C48.3699 12.4154 48.3884 12.5588 48.4068 12.7021C48.4161 12.7715 48.43 12.8455 48.4346 12.9148L48.4485 13.1275L48.467 13.3402C48.4716 13.4096 48.4808 13.4836 48.4808 13.5575C48.4993 14.1355 48.4901 14.6858 48.4808 15.2406L48.4901 15.2314Z" fill="white"/>
<path d="M71.9711 35.4655C71.0833 32.8715 63.3013 33.001 52.4074 35.3407C59.0612 34.2957 63.6157 34.587 64.2492 36.4412C65.3867 39.7657 53.4571 46.868 37.6017 52.2965C21.7464 57.7296 7.96725 59.4358 6.82978 56.1066C6.23329 54.3634 9.22033 51.589 14.4777 48.5604C14.4684 48.5373 14.4638 48.5095 14.4546 48.4864C5.00796 53.138 -0.771896 57.5816 0.0835232 60.0877C1.42907 64.018 18.6161 61.6968 38.4664 54.8951C58.3168 48.098 73.3167 39.3958 71.9711 35.4655Z" fill="white"/>
</svg>
