<svg width="20" height="21" viewBox="0 0 20 21" fill="none" xmlns="http://www.w3.org/2000/svg">
<path d="M17.9875 13.8936L14.7 12.8498C14.3593 12.7405 13.9953 12.7251 13.6466 12.8054C13.2979 12.8857 12.9773 13.0587 12.7187 13.3061L11.875 14.1498C11.7601 14.2617 11.6116 14.3327 11.4523 14.3519C11.2931 14.3711 11.132 14.3374 10.9937 14.2561C10.3211 13.8412 9.67412 13.3862 9.05624 12.8936C8.53168 12.4753 8.05578 11.9994 7.63749 11.4748C7.13627 10.8576 6.67292 10.2106 6.24999 9.53731C6.1686 9.3991 6.13491 9.23796 6.15411 9.07872C6.17331 8.91948 6.24433 8.77096 6.35624 8.65606L7.19999 7.78106C7.4479 7.52408 7.62175 7.20489 7.70316 6.85724C7.78457 6.50958 7.77052 6.14638 7.66249 5.80606L6.60624 2.51231C6.45436 2.0375 6.13013 1.63682 5.69745 1.38924C5.26477 1.14166 4.75504 1.06516 4.26874 1.17481L2.70624 1.53106C2.38432 1.60634 2.08589 1.75976 1.83736 1.97778C1.58882 2.1958 1.39782 2.47168 1.28124 2.78106C-1.29376 9.56231 4.50624 15.0061 4.99999 15.4998C5.38124 15.9248 9.11249 19.8748 14.175 19.8748C15.3825 19.8856 16.5818 19.6738 17.7125 19.2498C18.0219 19.1332 18.2978 18.9422 18.5158 18.6937C18.7338 18.4452 18.8872 18.1467 18.9625 17.8248L19.3187 16.2623C19.4375 15.7723 19.3661 15.2555 19.1191 14.816C18.8721 14.3765 18.4678 14.0469 17.9875 13.8936ZM18.125 15.9498L17.7687 17.5123C17.7386 17.6344 17.679 17.7473 17.5951 17.841C17.5112 17.9347 17.4056 18.0064 17.2875 18.0498C11.1625 20.3748 6.03749 14.6748 5.94999 14.6186C5.93665 14.5989 5.91968 14.5819 5.89999 14.5686C5.83749 14.5186 0.13749 9.36856 2.46874 3.23106C2.51212 3.11299 2.58382 3.00737 2.67753 2.92346C2.77124 2.83956 2.88411 2.77993 3.00624 2.74981L4.54999 2.37481C4.60396 2.36832 4.65852 2.36832 4.71249 2.37481C4.86896 2.37588 5.02118 2.42587 5.14782 2.51777C5.27447 2.60967 5.36919 2.73888 5.41874 2.88731L6.46249 6.18106C6.50291 6.30784 6.50858 6.44315 6.4789 6.57287C6.44921 6.70259 6.38527 6.82197 6.29374 6.91856L5.44999 7.78731C5.14876 8.10266 4.95886 8.50783 4.90921 8.9411C4.85956 9.37437 4.9529 9.81199 5.17499 10.1873C5.61839 10.902 6.10252 11.5907 6.62499 12.2498C7.10241 12.8521 7.64768 13.3974 8.24999 13.8748C8.90913 14.3973 9.59776 14.8814 10.3125 15.3248C10.6875 15.5479 11.1254 15.6419 11.5589 15.5922C11.9924 15.5425 12.3977 15.352 12.7125 15.0498L13.5812 14.2123C13.6772 14.1197 13.7963 14.0546 13.926 14.0238C14.0558 13.993 14.1914 13.9977 14.3187 14.0373L17.6125 15.0811C17.7914 15.135 17.9435 15.2543 18.0385 15.4153C18.1335 15.5763 18.1644 15.7671 18.125 15.9498Z" fill="black"/>
<path d="M11.3249 2.37498C13.0532 2.59089 14.6601 3.37675 15.8916 4.60829C17.1232 5.83983 17.909 7.44676 18.1249 9.17498C18.1434 9.32743 18.2173 9.46775 18.3325 9.56919C18.4478 9.67064 18.5964 9.72609 18.7499 9.72498H18.8249C18.9078 9.71575 18.9881 9.69001 19.0609 9.64928C19.1337 9.60855 19.1976 9.55366 19.2489 9.48784C19.3001 9.42202 19.3377 9.3466 19.3593 9.26603C19.381 9.18547 19.3863 9.10138 19.3749 9.01873C19.129 7.01068 18.2183 5.14264 16.7878 3.71213C15.3573 2.28161 13.4892 1.37088 11.4812 1.12498C11.3991 1.11472 11.3158 1.12073 11.2361 1.14266C11.1563 1.16459 11.0817 1.20201 11.0164 1.2528C10.8845 1.35536 10.7988 1.5061 10.7781 1.67186C10.7573 1.83762 10.8033 2.00482 10.9059 2.13668C11.0084 2.26854 11.1592 2.35426 11.3249 2.37498Z" fill="black"/>
<path d="M10.8125 4.99373C12.0058 5.14184 13.1155 5.68398 13.9657 6.53424C14.816 7.38449 15.3581 8.4942 15.5062 9.68748C15.5247 9.83992 15.5986 9.98025 15.7138 10.0817C15.8291 10.1831 15.9777 10.2386 16.1312 10.2375H16.2125C16.2942 10.2274 16.3732 10.2013 16.4448 10.1607C16.5165 10.12 16.5794 10.0656 16.6299 10.0005C16.6804 9.93549 16.7176 9.86109 16.7393 9.78162C16.761 9.70215 16.7667 9.61918 16.7562 9.53748C16.5729 8.06641 15.9042 6.6985 14.856 5.65025C13.8077 4.602 12.4398 3.9333 10.9687 3.74998C10.8867 3.73972 10.8034 3.74573 10.7236 3.76766C10.6439 3.78959 10.5692 3.82701 10.5039 3.8778C10.4386 3.92858 10.384 3.99172 10.3431 4.06363C10.3022 4.13553 10.2759 4.21478 10.2656 4.29686C10.2553 4.37893 10.2614 4.46223 10.2833 4.54198C10.3052 4.62173 10.3426 4.69639 10.3934 4.76168C10.4442 4.82697 10.5073 4.88162 10.5793 4.92251C10.6512 4.9634 10.7304 4.98972 10.8125 4.99998V4.99373Z" fill="black"/>
<path d="M10.2875 8.13759C10.815 8.20311 11.3055 8.4428 11.6814 8.81866C12.0573 9.19453 12.297 9.68509 12.3625 10.2126C12.3809 10.365 12.4548 10.5054 12.5701 10.6068C12.6854 10.7082 12.8339 10.7637 12.9875 10.7626H13.0625C13.2264 10.7423 13.3756 10.6579 13.4775 10.5279C13.5794 10.3979 13.6257 10.2329 13.6062 10.0688C13.5066 9.26479 13.1414 8.51702 12.5685 7.94412C11.9956 7.37122 11.2478 7.00599 10.4437 6.90634C10.3617 6.89649 10.2785 6.9029 10.1989 6.92521C10.1193 6.94752 10.0448 6.98529 9.97983 7.03636C9.91483 7.08744 9.86053 7.15081 9.82002 7.22287C9.77951 7.29493 9.75359 7.37426 9.74374 7.45634C9.73389 7.53842 9.74031 7.62163 9.76262 7.70123C9.78493 7.78082 9.82269 7.85525 9.87377 7.92025C9.92484 7.98525 9.98821 8.03955 10.0603 8.08006C10.1323 8.12057 10.2117 8.14649 10.2937 8.15634L10.2875 8.13759Z" fill="black"/>
</svg>
