<svg width="102" height="102" viewBox="0 0 102 102" fill="none" xmlns="http://www.w3.org/2000/svg">
<path d="M95.8011 32.6394L5.64767 32.5037C2.81404 32.5037 0.516883 30.2066 0.516883 27.3729L0.428223 9.52541C0.428223 7.26602 1.46033 3.93942 3.48863 3.25457C4.00417 3.08073 4.55645 2.98633 5.13069 2.98633H96.8691C99.7027 2.98633 102 5.28348 102 8.11711V28.0246C102 28.5988 101.905 29.1511 101.731 29.6666C101.047 31.6949 98.0605 32.6394 95.8011 32.6394Z" fill="#F9F8F9"/>
<path d="M101.731 29.6666C101.048 31.6963 99.1288 33.1555 96.8692 33.1555H5.13078C2.29715 33.1555 0 30.8584 0 28.0247V8.1173C0 5.8577 1.4592 3.93879 3.48893 3.25537V27.2038C3.48893 28.5639 4.59164 29.6666 5.95171 29.6666H101.731Z" fill="#E8E8E8"/>
<path d="M73.7395 72.5063H69.5507L72.497 72.2974C74.9963 72.2974 76.6604 70.5977 77.1264 68.0196C77.1322 67.9876 77.1275 67.9545 77.1275 67.9219C77.1275 65.3899 75.0749 63.3372 72.5428 63.3372C71.4653 63.2871 61.7809 63.4614 60.9548 63.2223C56.8613 62.5101 54.0812 58.5744 54.8818 54.2826L55.965 48.4766C56.593 45.1112 55.0513 41.7387 52.1643 40.0094C51.9749 39.8959 51.9292 40.1083 51.7284 40.0094C50.3823 39.3467 48.7635 40.0244 48.2834 41.4511C48.0626 42.1069 43.2516 56.3891 43.0547 56.9734C41.5666 61.3961 38.2876 66.1257 34.1551 68.2595L33.3184 81.1755L34.1167 92.9238C34.1167 96.3267 38.9329 98.7148 46.8232 98.7148H64.0249H68.6297C70.8825 98.7148 73.9111 97.717 73.9111 94.9295C73.9111 92.6736 72.0823 90.845 69.8266 90.845H69.5507L71.6915 90.6506C73.9111 91.0708 77.087 88.8323 77.1266 86.3344C77.1271 86.3098 77.1273 86.285 77.1273 86.2603C77.1273 83.7284 75.0747 81.6757 72.5426 81.6757H69.5505L73.5854 81.5027C76.7556 81.5027 78.1115 78.8862 78.3229 77.1887C78.327 77.1565 78.324 77.1236 78.324 77.0912C78.3242 74.5591 76.2714 72.5063 73.7395 72.5063Z" fill="#F1D0A5"/>
<path d="M52.1637 40.0102C50.608 44.5745 45.9965 58.0746 45.8303 58.5692C44.3423 62.992 41.1982 67.5912 37.0669 69.7256L33.9453 71.4845L34.1936 67.6733C38.325 65.5389 41.4691 60.9397 42.957 56.5169C43.154 55.932 47.9134 41.7875 48.133 41.1328C48.6132 39.7064 50.2325 39.0292 51.5788 39.69C51.7799 39.7885 51.9749 39.8952 52.1637 40.0102Z" fill="#F2BB88"/>
<path d="M23.9746 95.5121C23.9746 97.2812 25.4088 98.7154 27.1779 98.7154H30.691C32.4601 98.7154 33.8943 97.2812 33.8943 95.5121L34.1935 94.5264V66.5407C34.1935 64.7716 32.7593 63.3374 30.9902 63.3374H28.1636L27.1779 63.6366C25.4088 63.6366 23.9746 65.0708 23.9746 66.8399V95.5121Z" fill="#F9F8F9"/>
<path d="M29.3602 94.5262C28.6992 94.5262 28.1633 93.9904 28.1633 93.3293V63.3374H26.8783C25.1092 63.3374 23.6753 64.7716 23.6753 66.5407V95.8112C23.6753 97.5803 25.1095 99.0144 26.8785 99.0144H30.9899C32.759 99.0144 34.1932 97.5803 34.1932 95.8112V94.5264H29.3602V94.5262Z" fill="#E8E8E8"/>
<path d="M72.5429 72.5065H65.5154C65.0197 72.5065 64.6177 72.1047 64.6177 71.6088C64.6177 69.6265 66.2246 68.0195 68.207 68.0195H77.1224C77.0699 70.5061 75.0418 72.5065 72.5429 72.5065Z" fill="#F2BB88"/>
<path d="M73.7432 81.6755H65.5149C65.0192 81.6755 64.6172 81.2736 64.6172 80.7778C64.6172 78.7954 66.2241 77.1885 68.2065 77.1885H78.3188C78.2667 79.6738 76.2405 81.6734 73.7432 81.6755Z" fill="#F2BB88"/>
<path d="M68.2065 86.335H77.1232C77.0856 88.6754 75.2972 90.5906 73.0089 90.8217H65.5149C65.0192 90.8217 64.6172 90.4199 64.6172 89.924C64.6172 87.9419 66.2241 86.335 68.2065 86.335Z" fill="#F2BB88"/>
<path d="M73.9103 94.9302C73.9103 97.1857 72.0817 99.0143 69.8262 99.0143H45.3277C44.788 99.0143 44.1435 99.002 43.4129 98.9753C38.1056 98.6387 35.3432 96.8614 34.5059 94.5259H73.8898C73.9041 94.6593 73.9103 94.7927 73.9103 94.9302Z" fill="#F2BB88"/>
<path d="M13.3569 11.6806L14.9782 14.9657C15.0402 15.0911 15.1599 15.1781 15.2982 15.1982L19.1686 15.7606C19.5173 15.8113 19.6565 16.2396 19.4042 16.4854L16.6035 19.2156C16.5033 19.3133 16.4575 19.4539 16.4811 19.5918L16.7278 21.0301L17.143 23.4475C17.2025 23.7948 16.837 24.0589 16.5253 23.8949L13.063 22.0745C12.9393 22.0094 12.7927 22.0094 12.669 22.0745L12.6029 22.1092L9.31979 23.7644C9.00804 23.9284 8.64253 23.6642 8.70204 23.317L9.39429 19.5803C9.41789 19.4424 9.37336 19.3024 9.2732 19.2048L6.4993 16.5501C6.24707 16.3042 6.38662 15.8763 6.73531 15.8256L10.4287 15.2206C10.5044 15.2095 10.5797 15.1564 10.6378 15.11C10.686 15.0716 10.726 15.0226 10.7542 14.9657L12.3755 11.6806C12.576 11.2738 13.1562 11.2738 13.3569 11.6806Z" fill="#FFE07D"/>
<path d="M12.603 22.1093L9.20647 23.8948C8.89452 24.059 8.52921 23.7943 8.58872 23.4474L9.24957 19.5911C9.2742 19.4536 9.22904 19.3141 9.12848 19.2156L6.32707 16.486C6.07464 16.2397 6.2142 15.8128 6.56309 15.7615L9.30909 15.3613L10.4338 15.1971C10.5097 15.1869 10.5795 15.1561 10.6369 15.1089C10.602 15.4414 10.5856 15.78 10.5856 16.1207C10.5856 18.3721 11.3368 20.447 12.603 22.1093Z" fill="#FFD064"/>
<path d="M32.4538 11.6806L34.0751 14.9658C34.1371 15.0912 34.2567 15.1782 34.3951 15.1983L38.2655 15.7606C38.6142 15.8113 38.7534 16.2396 38.5011 16.4855L35.7003 19.2155C35.6002 19.3132 35.5544 19.4538 35.578 19.5917L35.8247 21.0299L36.2399 23.4474C36.2994 23.7946 35.9339 24.0587 35.6221 23.8948L32.1599 22.0744C32.0361 22.0093 31.8896 22.0093 31.7658 22.0744L31.6998 22.109L28.4167 23.7642C28.1049 23.9282 27.7394 23.6641 27.7989 23.3168L28.4912 19.5802C28.5148 19.4423 28.4702 19.3023 28.3701 19.2046L25.596 16.5497C25.3437 16.3039 25.4833 15.876 25.832 15.8253L29.5253 15.2202C29.6011 15.2092 29.6764 15.156 29.7345 15.1096C29.7827 15.0712 29.8227 15.0222 29.8508 14.9653L31.4722 11.6802C31.6731 11.2738 32.2531 11.2738 32.4538 11.6806Z" fill="#FFE07D"/>
<path d="M31.6997 22.1093L28.3032 23.8948C27.9912 24.059 27.6259 23.7943 27.6854 23.4474L28.3462 19.5911C28.3709 19.4536 28.3257 19.3141 28.2252 19.2156L25.4238 16.486C25.1713 16.2397 25.3109 15.8128 25.6598 15.7615L28.4058 15.3613L29.5304 15.1971C29.6064 15.1869 29.6761 15.1561 29.7336 15.1089C29.6987 15.4414 29.6823 15.78 29.6823 16.1207C29.6823 18.3721 30.4335 20.447 31.6997 22.1093Z" fill="#FFD064"/>
<path d="M51.5507 11.6806L53.1721 14.9657C53.2341 15.0911 53.3537 15.1781 53.492 15.1982L57.3625 15.7606C57.7112 15.8113 57.8503 16.2396 57.5981 16.4854L54.7973 19.2154C54.6971 19.3131 54.6514 19.4537 54.675 19.5916L54.9217 21.0299L55.3369 23.4473C55.3964 23.7946 55.0309 24.0587 54.7191 23.8947L51.2569 22.0743C51.1331 22.0092 50.9866 22.0092 50.8628 22.0743L50.7967 22.109L47.5136 23.7642C47.2019 23.9282 46.8364 23.664 46.8959 23.3168L47.5881 19.5801C47.6117 19.4422 47.5672 19.3022 47.467 19.2046L44.6931 16.5501C44.4409 16.3042 44.5805 15.8763 44.9292 15.8256L48.6225 15.2206C48.698 15.2095 48.7736 15.1564 48.8316 15.11C48.8799 15.0716 48.9199 15.0226 48.948 14.9657L50.5693 11.6806C50.7698 11.2738 51.3498 11.2738 51.5507 11.6806Z" fill="#FFE07D"/>
<path d="M50.7969 22.1093L47.4003 23.8948C47.0884 24.059 46.7231 23.7943 46.7826 23.4474L47.4434 19.5911C47.468 19.4536 47.4229 19.3141 47.3223 19.2156L44.5209 16.486C44.2685 16.2397 44.408 15.8128 44.7569 15.7615L47.5029 15.3613L48.6276 15.1971C48.7035 15.1869 48.7733 15.1561 48.8308 15.1089C48.7959 15.4414 48.7795 15.78 48.7795 16.1207C48.7793 18.3721 49.5306 20.447 50.7969 22.1093Z" fill="#FFD064"/>
<path d="M70.6474 11.6806L72.2688 14.9657C72.3307 15.0911 72.4504 15.1781 72.5887 15.1982L76.4592 15.7606C76.8079 15.8113 76.947 16.2396 76.6948 16.4854L73.894 19.2154C73.7938 19.3131 73.7481 19.4537 73.7717 19.5916L74.0183 21.0299L74.4335 23.4473C74.4931 23.7946 74.1275 24.0587 73.8158 23.8947L70.3535 22.0743C70.2298 22.0092 70.0832 22.0092 69.9595 22.0743L69.8934 22.109L66.6103 23.7642C66.2986 23.9282 65.9331 23.664 65.9926 23.3168L66.6848 19.5801C66.7084 19.4422 66.6639 19.3022 66.5637 19.2046L63.7898 16.5501C63.5376 16.3042 63.6772 15.8763 64.0258 15.8256L67.7192 15.2206C67.7949 15.2095 67.8702 15.1564 67.9283 15.11C67.9765 15.0716 68.0166 15.0226 68.0447 14.9657L69.666 11.6806C69.8665 11.2738 70.4467 11.2738 70.6474 11.6806Z" fill="#FFE07D"/>
<path d="M69.8936 22.1093L66.497 23.8948C66.185 24.059 65.8197 23.7943 65.8793 23.4474L66.5401 19.5911C66.5647 19.4536 66.5196 19.3141 66.419 19.2156L63.6176 16.486C63.3652 16.2397 63.5047 15.8128 63.8536 15.7615L66.5996 15.3613L67.7243 15.1971C67.8002 15.1869 67.87 15.1561 67.9275 15.1089C67.8926 15.4414 67.8762 15.78 67.8762 16.1207C67.8762 18.3721 68.6273 20.447 69.8936 22.1093Z" fill="#FFD064"/>
<path d="M89.7441 11.6806L91.3654 14.9657C91.4274 15.0911 91.5471 15.1781 91.6854 15.1982L95.5558 15.7606C95.9045 15.8113 96.0437 16.2396 95.7915 16.4854L92.9907 19.2154C92.8905 19.3131 92.8447 19.4537 92.8683 19.5916L93.115 21.0299L93.5302 23.4473C93.5897 23.7946 93.2242 24.0587 92.9125 23.8947L89.4502 22.0743C89.3265 22.0092 89.1799 22.0092 89.0562 22.0743L88.9901 22.109L85.707 23.7642C85.3953 23.9282 85.0297 23.664 85.0893 23.3168L85.7815 19.5801C85.8051 19.4422 85.7606 19.3022 85.6604 19.2046L82.8865 16.5501C82.6343 16.3042 82.7738 15.8763 83.1225 15.8256L86.8159 15.2206C86.8914 15.2095 86.9669 15.1564 87.025 15.11C87.0732 15.0716 87.1132 15.0226 87.1414 14.9657L88.7627 11.6806C88.9634 11.2738 89.5434 11.2738 89.7441 11.6806Z" fill="#FFE07D"/>
<path d="M88.9903 22.1093L85.5937 23.8948C85.2817 24.059 84.9164 23.7943 84.9759 23.4474L85.6368 19.5911C85.6614 19.4536 85.6163 19.3141 85.5157 19.2156L82.7143 16.486C82.4618 16.2397 82.6014 15.8128 82.9503 15.7615L85.6963 15.3613L86.821 15.1971C86.8969 15.1869 86.9667 15.1561 87.0241 15.1089C86.9893 15.4414 86.9728 15.78 86.9728 16.1207C86.9728 18.3721 87.724 20.447 88.9903 22.1093Z" fill="#FFD064"/>
</svg>
