<svg width="63" height="64" viewBox="0 0 63 64" fill="none" xmlns="http://www.w3.org/2000/svg">
<g clip-path="url(#clip0_25_3804)">
<path fill-rule="evenodd" clip-rule="evenodd" d="M41.0706 25.8865C43.2601 26.4412 45.3119 27.5279 47.0125 29.1546C48.8756 30.9347 50.0777 33.1295 50.6216 35.4656C51.1766 37.8443 51.0485 40.3711 50.2443 42.7579L62.7491 54.7077C63.0864 55.0437 63.0795 55.5811 62.7325 55.9091L54.3933 63.7614C54.0518 64.0828 53.5079 64.0828 53.1664 63.7587L40.8448 51.9836C38.3896 52.7943 35.7815 52.9516 33.3166 52.4449C30.8986 51.9489 28.6183 50.8142 26.7551 49.0341C25.0518 47.4074 23.902 45.4353 23.3016 43.3246C22.6792 41.1405 22.6434 38.8124 23.19 36.5683C23.2575 36.2896 23.3966 36.0442 23.5908 35.8456C23.7863 35.6469 24.0342 35.5002 24.3178 35.4216C24.6001 35.3429 24.8879 35.3389 25.1606 35.4069C25.4318 35.4736 25.6824 35.6109 25.8945 35.8122L32.2426 41.8778L38.1486 40.3044L39.695 34.5642L33.3497 28.4999C33.1376 28.2973 32.993 28.0546 32.9201 27.7919C32.8485 27.5319 32.8485 27.2532 32.9269 26.9759C33.0054 26.6985 33.1514 26.4585 33.3497 26.2705L33.3538 26.2665C33.5549 26.0758 33.8055 25.9398 34.0905 25.8705C36.4012 25.3105 38.8068 25.3145 41.0679 25.8878L41.0706 25.8865Z" fill="#F6EACE"/>
<path fill-rule="evenodd" clip-rule="evenodd" d="M45.783 30.3652C44.3055 28.9532 42.5264 28.0105 40.6302 27.5305C38.7354 27.0504 36.7195 27.0291 34.7655 27.4638L40.9869 33.408C41.1948 33.6067 41.338 33.8454 41.4124 34.1081C41.4867 34.3681 41.4895 34.6414 41.4151 34.9134L39.8274 40.807C39.753 41.0817 39.6126 41.3217 39.4171 41.5124C39.2215 41.7044 38.975 41.8444 38.6914 41.9204L32.627 43.5351C32.3461 43.6098 32.0624 43.6111 31.7953 43.5431C31.524 43.4751 31.2761 43.3391 31.0696 43.1418L24.8468 37.1949C24.4255 39.0923 24.4736 41.0444 24.9942 42.8711C25.516 44.7018 26.513 46.4126 27.9878 47.822C29.603 49.3647 31.5818 50.3487 33.6831 50.7794C35.8657 51.2274 38.1791 51.0821 40.3534 50.3501C40.6481 50.2514 40.9511 50.2354 41.2389 50.2994C41.528 50.3634 41.7952 50.5021 42.0155 50.7128L53.7876 61.9626L60.8683 55.2956L48.9529 43.9098C48.7326 43.6991 48.5839 43.4405 48.515 43.1604C48.4462 42.8831 48.4572 42.5911 48.5563 42.3057C49.2834 40.1897 49.4046 37.9469 48.9116 35.8375C48.4393 33.8107 47.3969 31.908 45.783 30.3652Z" fill="#F6EACE"/>
<path d="M51.0362 1.7041H44.8506V18.8688H51.0362V1.7041Z" fill="black"/>
<path d="M19.4861 24.3877H1.75977V30.3773H19.4861V24.3877Z" fill="black"/>
<path fill-rule="evenodd" clip-rule="evenodd" d="M4.47266 22.6837H17.1674V19.8289C17.1674 18.9168 17.5516 18.0875 18.1726 17.4875C18.7937 16.8874 19.6488 16.5141 20.5907 16.5141H43.0912V4.2229H20.5907C16.1456 4.2229 12.1151 5.97231 9.19721 8.79776C6.27931 11.6232 4.47266 15.5247 4.47266 19.8302V22.685V22.6837Z" fill="black"/>
<path fill-rule="evenodd" clip-rule="evenodd" d="M21.2447 23.5356C21.2447 23.065 20.8508 22.6836 20.3647 22.6836H18.9258V19.8288C18.9258 19.3861 19.113 18.9835 19.4146 18.6914C19.7162 18.3994 20.132 18.2181 20.5892 18.2181H43.0897V19.7195C43.0897 20.1902 43.4835 20.5715 43.9696 20.5715H51.915C52.4011 20.5715 52.7949 20.1902 52.7949 19.7195V0.852036C52.7949 0.381349 52.4011 0 51.915 0H43.9696C43.4835 0 43.0897 0.381349 43.0897 0.852036V2.51877H20.5892C15.6581 2.51877 11.1883 4.45885 7.95229 7.59365C4.71629 10.7284 2.71135 15.0553 2.71135 19.8302V22.6849H0.879915C0.393827 22.6849 0 23.0663 0 23.537V31.2306C0 31.7013 0.393827 32.0827 0.879915 32.0827H20.3661C20.8522 32.0827 21.246 31.7013 21.246 31.2306V23.537L21.2447 23.5356Z" fill="black"/>
<path fill-rule="evenodd" clip-rule="evenodd" d="M16.6864 53.1502C15.1345 54.6529 12.9904 55.5823 10.622 55.5823C8.2535 55.5823 6.10948 54.6529 4.55758 53.1502C3.00568 51.6474 2.0459 49.5713 2.0459 47.2779C2.0459 43.5164 5.42373 39.8123 8.15435 36.8188C8.80018 36.1108 9.40744 35.4454 9.92933 34.8174C9.97064 34.7667 10.0188 34.7187 10.0725 34.6761C10.4498 34.3827 11.002 34.44 11.3064 34.8054C11.831 35.4361 12.4424 36.1068 13.091 36.8188C15.8216 39.8136 19.1994 43.5164 19.1994 47.2779C19.1994 49.5713 18.2396 51.6474 16.6877 53.1502H16.6864Z" fill="#F6EACE"/>
<path fill-rule="evenodd" clip-rule="evenodd" d="M10.6223 53.8796C12.5047 53.8796 14.2094 53.1409 15.4433 51.9461C16.6771 50.7514 17.4399 49.1007 17.4399 47.278C17.4399 44.1512 14.31 40.7177 11.779 37.9429C11.3742 37.4989 10.9831 37.0695 10.6223 36.6628C10.2629 37.0695 9.87183 37.4975 9.46561 37.9429C6.93465 40.719 3.80469 44.1512 3.80469 47.278C3.80469 49.1007 4.56756 50.7514 5.80137 51.9461C7.03517 53.1409 8.73992 53.8796 10.6223 53.8796Z" fill="#F6EACE"/>
<path fill-rule="evenodd" clip-rule="evenodd" d="M13.1421 51.1768C13.8265 50.7728 14.3952 50.2021 14.7877 49.526C15.1677 48.87 15.3853 48.1153 15.3853 47.3139C15.3853 46.8433 14.9915 46.4619 14.5054 46.4619C14.0193 46.4619 13.6255 46.8433 13.6255 47.3139C13.6255 47.8166 13.4905 48.2873 13.2551 48.6953C13.0086 49.1194 12.6547 49.4754 12.2278 49.7274C11.8147 49.9714 11.6839 50.4954 11.9359 50.8954C12.1879 51.2954 12.7277 51.4221 13.1421 51.1781V51.1768Z" fill="#F6EACE"/>
</g>
<defs>
<clipPath id="clip0_25_3804">
<rect width="63" height="64" fill="white"/>
</clipPath>
</defs>
</svg>
